<?xml version="1.0" encoding="UTF-8"?>
<svg xmlns="http://www.w3.org/2000/svg" version="1.1" viewBox="0 0 72 72">
  <!-- Generator: Adobe Illustrator 29.6.1, SVG Export Plug-In . SVG Version: 2.1.1 Build 9)  -->
  <defs>
    <style>
      .st0 {
        font-size: 20.8px;
      }

      .st0, .st1 {
        font-family: Cabrito-ConDem, Cabrito;
      }

      .st1 {
        font-size: 20.83px;
      }

      .st2 {
        fill: #fff;
        stroke: #231f20;
        stroke-miterlimit: 10;
        stroke-width: 2px;
      }
    </style>
  </defs>
  <g id="Layer_1">
    <rect class="st2" x="13.43" y="1.28" width="45.13" height="69.43" rx="2.02" ry="2.02"/>
    <text class="st1" transform="translate(16.36 19.75)"><tspan x="0" y="0">4</tspan></text>
    <text class="st0" transform="translate(55.27 53) rotate(-180)"><tspan x="0" y="0">4</tspan></text>
  </g>
  <g id="Layer_2">
    <path d="M42.65,32.6c-.49,0-.97.06-1.42.17.55-.92.88-1.99.88-3.14,0-3.37-2.73-6.1-6.1-6.1s-6.1,2.73-6.1,6.1c0,1.1.29,2.13.8,3.02-.25-.03-.51-.05-.77-.05-3.37,0-6.1,2.73-6.1,6.1s2.73,6.1,6.1,6.1c2.08,0,3.92-1.04,5.02-2.63-.06.73-.12,1.45-.2,1.7-.49,1.69-1.23,2.95-1.79,3.74h6.95c-.65-.77-1.52-1.99-2.19-3.66-.13-.33-.24-1.3-.34-2.18,1.06,1.81,3.02,3.02,5.26,3.02,3.37,0,6.1-2.73,6.1-6.1s-2.73-6.1-6.1-6.1Z"/>
    <path d="M24,23.38c-.14,0-.27.02-.39.05.15-.25.24-.55.24-.87,0-.93-.75-1.68-1.68-1.68s-1.68.75-1.68,1.68c0,.3.08.59.22.83-.07,0-.14-.01-.21-.01-.93,0-1.68.75-1.68,1.68s.75,1.68,1.68,1.68c.57,0,1.08-.29,1.38-.73-.02.2-.03.4-.05.47-.13.47-.34.81-.49,1.03h1.92c-.18-.21-.42-.55-.6-1.01-.04-.09-.07-.36-.09-.6.29.5.83.83,1.45.83.93,0,1.68-.75,1.68-1.68s-.75-1.68-1.68-1.68Z"/>
    <path d="M51.52,49.56c-.14,0-.27-.02-.39-.05.15.25.24.55.24.87,0,.93-.75,1.68-1.68,1.68s-1.68-.75-1.68-1.68c0-.3.08-.59.22-.83-.07,0-.14.01-.21.01-.93,0-1.68-.75-1.68-1.68s.75-1.68,1.68-1.68c.57,0,1.08.29,1.38.73-.02-.2-.03-.4-.05-.47-.13-.47-.34-.81-.49-1.03h1.92c-.18.21-.42.55-.6,1.01-.04.09-.07.36-.09.6.29-.5.83-.83,1.45-.83.93,0,1.68.75,1.68,1.68s-.75,1.68-1.68,1.68Z"/>
  </g>
</svg>