<?xml version="1.0" encoding="UTF-8"?>
<svg id="Layer_1" xmlns="http://www.w3.org/2000/svg" version="1.1" viewBox="0 0 72 72">
  <!-- Generator: Adobe Illustrator 29.6.1, SVG Export Plug-In . SVG Version: 2.1.1 Build 9)  -->
  <defs>
    <style>
      .st0, .st1, .st2 {
        fill: #ff0006;
      }

      .st1 {
        font-size: 20.8px;
      }

      .st1, .st2 {
        font-family: Cabrito-ConDem, Cabrito;
        isolation: isolate;
      }

      .st2 {
        font-size: 20.83px;
      }

      .st3 {
        fill: #fff;
        stroke: #231f20;
        stroke-miterlimit: 10;
        stroke-width: 2px;
      }
    </style>
  </defs>
  <rect class="st3" x="13.43" y="1.28" width="45.13" height="69.43" rx="2.02" ry="2.02"/>
  <path class="st0" d="M40.37,30.89c-2.62-3.02-3.82-5.83-4.37-7.66v.36c-.56,1.83-1.75,4.37-4.36,7.37-2.16,2.48-4.45,4.23-6.01,5.07,1.53.77,3.59,2.7,5.75,5.15,2.75,3.12,4.14,5.71,4.62,7.5v.1c.48-1.79,1.86-4.53,4.63-7.67,2.16-2.45,4.22-4.38,5.75-5.15-1.56-.85-3.85-2.6-6.01-5.07Z"/>
  <text class="st2" transform="translate(16.07 20.62)"><tspan x="0" y="0">J</tspan></text>
  <text class="st1" transform="translate(56.13 52.57) rotate(-180)"><tspan x="0" y="0">J</tspan></text>
  <path class="st0" d="M52.5,44.81c-.91-1.05-1.32-2.02-1.52-2.66v.12c-.19.63-.61,1.52-1.51,2.56-.75.86-1.54,1.47-2.08,1.76.53.27,1.24.94,1.99,1.79.96,1.08,1.44,1.98,1.6,2.6v.03c.17-.62.65-1.57,1.61-2.66.75-.85,1.46-1.52,1.99-1.79-.54-.29-1.34-.9-2.08-1.76h0Z"/>
  <path class="st0" d="M23.33,25.31c-.91-1.05-1.32-2.02-1.52-2.66v.12c-.19.63-.61,1.52-1.51,2.56-.75.86-1.54,1.47-2.08,1.76.53.27,1.24.94,1.99,1.79.96,1.08,1.44,1.98,1.6,2.6v.03c.17-.62.65-1.57,1.61-2.66.75-.85,1.46-1.52,1.99-1.79-.54-.29-1.34-.9-2.08-1.76h0Z"/>
</svg>