<?xml version="1.0" encoding="UTF-8"?>
<svg id="Layer_1" xmlns="http://www.w3.org/2000/svg" version="1.1" viewBox="0 0 72 72">
  <!-- Generator: Adobe Illustrator 29.6.1, SVG Export Plug-In . SVG Version: 2.1.1 Build 9)  -->
  <defs>
    <style>
      .st0, .st1, .st2 {
        fill: #ed1c24;
      }

      .st1 {
        font-size: 20.83px;
      }

      .st1, .st2 {
        font-family: Cabrito-ConDem, Cabrito;
      }

      .st2 {
        font-size: 20.8px;
      }

      .st3 {
        fill: #fff;
        stroke: #231f20;
        stroke-miterlimit: 10;
        stroke-width: 2px;
      }
    </style>
  </defs>
  <rect class="st3" x="13.43" y="1.28" width="45.13" height="69.43" rx="2.02" ry="2.02"/>
  <text class="st1" transform="translate(16.5 20.62)"><tspan x="0" y="0">9</tspan></text>
  <text class="st2" transform="translate(55.7 52.57) rotate(-180)"><tspan x="0" y="0">9</tspan></text>
  <path class="st0" d="M26.33,30.49c.38-.61.86-1.17,1.46-1.63,2.84-2.29,8.55-1.18,9.48,2.29l.03.05.03.11c1.26-3.54,6.32-4.73,9.16-2.44,1.6,1.29,2.53,3.28,2.46,5.32-.57,5.29-7.27,9.52-8.86,11.03-.99.94-2.94,3.25-2.96,3.23,0,0-1.9-2.53-2.29-2.95-1.66-1.78-6.24-5.52-6.24-5.52-2.6-2.6-4.5-5.93-2.28-9.47Z"/>
  <path class="st0" d="M19.05,23.22c.11-.17.24-.33.41-.46.8-.65,2.42-.33,2.68.65h0s0,.04,0,.04c.36-1,1.79-1.34,2.59-.69.45.36.71.93.7,1.5-.16,1.49-2.06,2.69-2.5,3.12-.28.26-.83.92-.84.91,0,0-.54-.72-.65-.83-.47-.5-1.76-1.56-1.76-1.56-.74-.73-1.27-1.67-.64-2.68Z"/>
  <path class="st0" d="M53.47,49.44c-.11.17-.24.33-.41.46-.8.65-2.42.33-2.68-.65h0s0-.04,0-.04c-.36,1-1.79,1.34-2.59.69-.45-.36-.71-.93-.7-1.5.16-1.49,2.06-2.69,2.5-3.12.28-.26.83-.92.84-.91,0,0,.54.72.65.83.47.5,1.76,1.56,1.76,1.56.74.73,1.27,1.67.64,2.68Z"/>
</svg>