<?xml version="1.0" encoding="UTF-8"?>
<svg xmlns="http://www.w3.org/2000/svg" version="1.1" viewBox="0 0 72 72">
  <!-- Generator: Adobe Illustrator 29.6.1, SVG Export Plug-In . SVG Version: 2.1.1 Build 9)  -->
  <defs>
    <style>
      .st0 {
        font-size: 20.8px;
      }

      .st0, .st1 {
        font-family: Cabrito-ConDem, Cabrito;
      }

      .st1 {
        font-size: 20.83px;
      }

      .st2 {
        fill: #fff;
        stroke: #231f20;
        stroke-miterlimit: 10;
        stroke-width: 2px;
      }
    </style>
  </defs>
  <g id="Layer_1">
    <rect class="st2" x="13.43" y="1.28" width="45.13" height="69.43" rx="2.02" ry="2.02"/>
    <text class="st1" transform="translate(16.36 19.75)"><tspan x="0" y="0">9</tspan></text>
    <text class="st0" transform="translate(55.27 53) rotate(-180)"><tspan x="0" y="0">9</tspan></text>
  </g>
  <g id="Layer_2">
    <path d="M38.64,27.68c-.89-.86-2.65-2.99-2.66-2.97,0,0-1.71,2.33-2.06,2.72-1.69,1.85-3.7,3.38-5.57,5.03-2.45,2.17-3.95,5.72-2.1,8.75.34.56.78,1.07,1.31,1.5,2.04,1.68,5.73,1.36,7.56-.45-.1.47-.21.95-.36,1.47-.49,1.69-1.23,2.95-1.79,3.74h6.95c-.65-.77-1.52-1.99-2.19-3.66-.23-.59-.4-1.14-.53-1.67,1.83,1.89,5.16,2.26,7.2.57,1.44-1.19,2.27-3.02,2.22-4.89-.51-4.86-6.55-8.76-7.98-10.14Z"/>
    <path d="M23.03,21.74c-.27-.25-.79-.88-.8-.87,0,0-.51.68-.62.8-.51.54-1.11.99-1.66,1.47-.73.64-1.18,1.67-.63,2.56.1.16.23.31.39.44.61.49,1.71.4,2.26-.13-.03.14-.06.28-.11.43-.15.49-.37.86-.54,1.09h2.08c-.19-.23-.46-.58-.65-1.07-.07-.17-.12-.33-.16-.49.55.55,1.54.66,2.15.17.43-.35.68-.88.66-1.43-.15-1.42-1.96-2.56-2.38-2.97Z"/>
    <path d="M50.28,51.2c-.27.25-.79.88-.8.87,0,0-.51-.68-.62-.8-.51-.54-1.11-.99-1.66-1.47-.73-.64-1.18-1.67-.63-2.56.1-.16.23-.31.39-.44.61-.49,1.71-.4,2.26.13-.03-.14-.06-.28-.11-.43-.15-.49-.37-.86-.54-1.09h2.08c-.19.23-.46.58-.65,1.07-.07.17-.12.33-.16.49.55-.55,1.54-.66,2.15-.17.43.35.68.88.66,1.43-.15,1.42-1.96,2.56-2.38,2.97Z"/>
  </g>
</svg>